<svg width="56" height="56" viewBox="0 0 56 56" fill="none" xmlns="http://www.w3.org/2000/svg">
<path fill-rule="evenodd" clip-rule="evenodd" d="M28.7428 5.62328L28 5.32617L27.2572 5.62328L7.25722 13.6233L6 14.1262V15.4802V39.4802V40.7734L7.17927 41.3041L27.1793 50.3041L28 50.6734L28.8207 50.3041L48.8207 41.3041L50 40.7734V39.4802V15.4802V14.1262L48.7428 13.6233L28.7428 5.62328ZM10 18.4414V38.1871L25.8715 45.3292V24.8311L10 18.4414ZM29.8715 45.4449L46 38.1871V18.4273L29.8715 24.8375V45.4449ZM42.6 15.4743L28 9.6343L13.3702 15.4862L27.8762 21.3262L42.6 15.4743Z" fill="#F75F41"/>
</svg>
