<svg width="21" height="14" viewBox="0 0 21 14" fill="none" xmlns="http://www.w3.org/2000/svg">
<path d="M13.2783 1.97434H7.72198V12.0813H13.2783V1.97434Z" fill="#FF5F00"/>
<path d="M8.0748 7.02781C8.07392 6.05444 8.29183 5.09362 8.71203 4.2181C9.13223 3.34258 9.74371 2.5753 10.5002 1.97435C9.5634 1.22902 8.43836 0.765518 7.25364 0.636808C6.06892 0.508098 4.87233 0.719372 3.80063 1.24649C2.72893 1.77361 1.82537 2.5953 1.19321 3.61764C0.56106 4.63999 0.22583 5.82173 0.22583 7.02781C0.22583 8.23389 0.56106 9.41563 1.19321 10.438C1.82537 11.4603 2.72893 12.282 3.80063 12.8091C4.87233 13.3362 6.06892 13.5475 7.25364 13.4188C8.43836 13.2901 9.5634 12.8266 10.5002 12.0813C9.74372 11.4803 9.13225 10.713 8.71204 9.83751C8.29184 8.96199 8.07393 8.00118 8.0748 7.02781Z" fill="#EB001B"/>
<path d="M20.7742 7.02781C20.7743 8.23387 20.4391 9.41561 19.8069 10.438C19.1748 11.4603 18.2713 12.282 17.1996 12.8091C16.1279 13.3362 14.9314 13.5475 13.7467 13.4188C12.562 13.2901 11.4369 12.8266 10.5002 12.0813C11.256 11.4797 11.867 10.7123 12.2871 9.83692C12.7072 8.96154 12.9255 8.00102 12.9255 7.02781C12.9255 6.05459 12.7072 5.09408 12.2871 4.21869C11.867 3.34331 11.256 2.57591 10.5002 1.97435C11.4369 1.22902 12.562 0.765515 13.7467 0.636806C14.9314 0.508098 16.1279 0.719381 17.1996 1.2465C18.2713 1.77363 19.1748 2.59532 19.8069 3.61766C20.4391 4.64001 20.7743 5.82175 20.7742 7.02781Z" fill="#F79E1B"/>
<path d="M20.1684 11.0108V10.8039H20.2508V10.7617H20.0409V10.8039H20.1233V11.0108H20.1684ZM20.5759 11.0108V10.7613H20.5116L20.4376 10.9329L20.3635 10.7613H20.2992V11.0108H20.3446V10.8226L20.414 10.9849H20.4611L20.5305 10.8222V11.0108H20.5759Z" fill="#F79E1B"/>
</svg>
