<svg width="28" height="8" viewBox="0 0 28 8" fill="none" xmlns="http://www.w3.org/2000/svg">
<path d="M24.3505 0H19.1392C19.4427 1.74131 21.1124 3.38019 22.9338 3.38019H27.0826C27.1332 3.22655 27.1332 2.97047 27.1332 2.81682C27.1332 1.28037 25.8683 0 24.3505 0Z" fill="url(#paint0_linear_24_1273)"/>
<path d="M19.5944 3.6875V7.93833H22.1241V5.68488H24.3503C25.5646 5.68488 26.6271 4.81423 26.9813 3.6875H19.5944Z" fill="#4FAD50"/>
<path d="M10.6897 0V7.88711H12.9159C12.9159 7.88711 13.4724 7.8871 13.776 7.32374C15.2939 4.30206 15.7492 3.38019 15.7492 3.38019H16.0528V7.88711H18.5826V0H16.3564C16.3564 0 15.7998 0.0512181 15.4963 0.563368C14.2314 3.17533 13.523 4.50692 13.523 4.50692H13.2195V0H10.6897Z" fill="#4FAD50"/>
<path d="M0.0645752 7.93837V0.0512695H2.59435C2.59435 0.0512695 3.30269 0.0512679 3.70745 1.178C4.71936 4.14846 4.82056 4.55819 4.82056 4.55819C4.82056 4.55819 5.02293 3.84117 5.93365 1.178C6.33841 0.0512679 7.04675 0.0512695 7.04675 0.0512695H9.57652V7.93837H7.04675V3.68753H6.74318L5.32651 7.93837H4.21341L2.79674 3.68753H2.49316V7.93837H0.0645752Z" fill="#4FAD50"/>
<defs>
<linearGradient id="paint0_linear_24_1273" x1="19.1302" y1="1.71432" x2="27.1153" y2="1.71432" gradientUnits="userSpaceOnUse">
<stop stop-color="#27B1E6"/>
<stop offset="1" stop-color="#148ACA"/>
</linearGradient>
</defs>
</svg>
