<svg width="48" height="48" viewBox="0 0 48 48" fill="none" xmlns="http://www.w3.org/2000/svg">
<path fill-rule="evenodd" clip-rule="evenodd" d="M17.3182 16.8182C17.3182 13.1279 20.3097 10.1364 24 10.1364C27.6903 10.1364 30.6818 13.1279 30.6818 16.8182C30.6818 20.5084 27.6903 23.5 24 23.5C20.3097 23.5 17.3182 20.5084 17.3182 16.8182ZM24 7.13635C18.6529 7.13635 14.3182 11.4711 14.3182 16.8182C14.3182 22.1653 18.6529 26.5 24 26.5C29.3471 26.5 33.6818 22.1653 33.6818 16.8182C33.6818 11.4711 29.3471 7.13635 24 7.13635ZM17.4545 30.0454C11.2037 30.0454 6.13635 35.1128 6.13635 41.3636H9.13635C9.13635 36.7696 12.8605 33.0454 17.4545 33.0454H30.5455C35.1395 33.0454 38.8636 36.7696 38.8636 41.3636H41.8636C41.8636 35.1128 36.7963 30.0454 30.5455 30.0454H17.4545Z" fill="#F75F41"/>
</svg>
