<svg width="56" height="56" viewBox="0 0 56 56" fill="none" xmlns="http://www.w3.org/2000/svg">
<path fill-rule="evenodd" clip-rule="evenodd" d="M10.1601 24.3979C11.8277 16.1826 19.0941 10 27.8 10C35.4366 10 41.9655 14.7571 44.5797 21.4704L38.574 18.6698L36.8835 22.2951L47.1372 27.0765L48.9498 27.9217L49.7951 26.1091L54.5764 15.8554L50.9512 14.1649L48.2679 19.9193C45.0468 11.7673 37.0986 6 27.8 6C17.1542 6 8.27858 13.5594 6.24002 23.6021L10.1601 24.3979ZM28.2001 46C36.906 46 44.1724 39.8174 45.84 31.6021L49.76 32.3979C47.7214 42.4406 38.8458 50 28.2001 50C18.9014 50 10.9532 44.2327 7.73214 36.0807L5.04882 41.8351L1.42358 40.1446L6.20497 29.8909L7.0502 28.0783L8.86282 28.9235L19.1165 33.7049L17.426 37.3302L11.4203 34.5296C14.0345 41.2429 20.5635 46 28.2001 46Z" fill="#F75F41"/>
</svg>
