<svg width="48" height="48" viewBox="0 0 48 48" fill="none" xmlns="http://www.w3.org/2000/svg">
<path fill-rule="evenodd" clip-rule="evenodd" d="M9.48022 21.846C9.48022 15.0166 15.0166 9.48027 21.846 9.48027C28.6754 9.48027 34.2117 15.0166 34.2117 21.846C34.2117 28.6754 28.6754 34.2117 21.846 34.2117C15.0166 34.2117 9.48022 28.6754 9.48022 21.846ZM21.846 6.48027C13.3597 6.48027 6.48022 13.3597 6.48022 21.846C6.48022 30.3323 13.3597 37.2117 21.846 37.2117C25.5489 37.2117 28.9459 35.9019 31.5989 33.7203L39.5448 41.6662L41.6661 39.5449L33.7203 31.599C35.9019 28.9459 37.2117 25.5489 37.2117 21.846C37.2117 13.3597 30.3322 6.48027 21.846 6.48027Z" fill="#F75F41"/>
</svg>
