<svg width="56" height="56" viewBox="0 0 56 56" fill="none" xmlns="http://www.w3.org/2000/svg">
<path fill-rule="evenodd" clip-rule="evenodd" d="M28 6C15.8497 6 6 15.8497 6 28V32V34H8H26V43.7056C26 47.1819 28.8181 50 32.2944 50C35.7707 50 38.5888 47.1819 38.5888 43.7056V40H34.5888V43.7056C34.5888 44.9728 33.5616 46 32.2944 46C31.0272 46 30 44.9728 30 43.7056V34H48H50V32V28C50 15.8497 40.1503 6 28 6ZM10 28C10 18.0589 18.0589 10 28 10C37.9411 10 46 18.0589 46 28V30H10V28Z" fill="#F75F41"/>
</svg>
