<svg width="26" height="9" viewBox="0 0 26 9" fill="none" xmlns="http://www.w3.org/2000/svg">
<path fill-rule="evenodd" clip-rule="evenodd" d="M7.17701 8.89017H5.01477L3.39336 2.36555C3.3164 2.06542 3.15299 1.80008 2.91263 1.67503C2.31277 1.36076 1.65176 1.11065 0.930664 0.984505V0.733307H4.41386C4.89459 0.733307 5.25514 1.11065 5.31523 1.54888L6.15651 6.25531L8.31769 0.733307H10.4198L7.17701 8.89017ZM11.6213 8.89017H9.57925L11.2608 0.733307H13.3028L11.6213 8.89017ZM15.9456 2.99177C16.0057 2.55244 16.3663 2.30124 16.7869 2.30124C17.4479 2.23817 18.168 2.36431 18.7689 2.6775L19.1294 0.921286C18.5285 0.670088 17.8675 0.543945 17.2676 0.543945C15.2857 0.543945 13.8435 1.67379 13.8435 3.24188C13.8435 4.43479 14.865 5.06116 15.5861 5.4385C16.3663 5.81475 16.6667 6.06595 16.6066 6.4422C16.6066 7.00658 16.0057 7.25778 15.4059 7.25778C14.6848 7.25778 13.9637 7.06965 13.3037 6.75538L12.9432 8.51268C13.6643 8.82586 14.4444 8.95201 15.1655 8.95201C17.3878 9.01399 18.7689 7.88523 18.7689 6.191C18.7689 4.05745 15.9456 3.9324 15.9456 2.99177ZM25.9143 8.89017L24.2928 0.733307H22.5512C22.1907 0.733307 21.8301 0.984505 21.71 1.36076L18.7075 8.89017H20.8096L21.2292 7.69834H23.8121L24.0525 8.89017H25.9143ZM22.852 2.92905L23.4518 6.00323H21.7703L22.852 2.92905Z" fill="#172B85"/>
</svg>
