<svg width="24" height="18" viewBox="0 0 24 18" fill="none" xmlns="http://www.w3.org/2000/svg">
<path d="M23.4999 3.20877C23.225 2.17528 22.4118 1.35996 21.3771 1.08054C19.5062 0.579102 12 0.579102 12 0.579102C12 0.579102 4.49762 0.579102 2.62298 1.08054C1.59211 1.35614 0.778875 2.17145 0.50016 3.20877C0 5.08437 0 9.00017 0 9.00017C0 9.00017 0 12.916 0.50016 14.7916C0.775057 15.8251 1.58829 16.6404 2.62298 16.9198C4.49762 17.4212 12 17.4212 12 17.4212C12 17.4212 19.5062 17.4212 21.3771 16.9198C22.4079 16.6442 23.2212 15.8289 23.4999 14.7916C24 12.916 24 9.00017 24 9.00017C24 9.00017 24 5.08437 23.4999 3.20877Z" fill="#FF3000"/>
<path d="M9.60231 12.6097L15.8371 9.00017L9.60231 5.39059V12.6097Z" fill="white"/>
</svg>
