<svg width="182" height="32" viewBox="0 0 182 32" fill="none" xmlns="http://www.w3.org/2000/svg">
<path d="M16.3164 32C25.1529 32 32.3164 24.8366 32.3164 16C32.3164 7.16345 25.1529 0 16.3164 0C7.47985 0 0.316406 7.16345 0.316406 16C0.316406 24.8366 7.47985 32 16.3164 32Z" fill="white"/>
<path fill-rule="evenodd" clip-rule="evenodd" d="M181.563 10.4391V13.6091H173.255V15.276H181.303V18.5143H173.255V20.3042H181.686V23.5015H168.541V10.4528L181.563 10.4391ZM160.002 20.1812C160.407 20.2152 160.811 20.0985 161.136 19.8533C161.263 19.7433 161.364 19.6068 161.432 19.4533C161.501 19.2998 161.535 19.1332 161.532 18.9652V18.8422C161.539 18.6776 161.507 18.5137 161.438 18.364C161.369 18.2143 161.265 18.0832 161.136 17.9814C160.809 17.7411 160.405 17.6293 160.002 17.6672H155.602V20.1812H160.002ZM155.602 14.3469H160.466C161.465 14.327 162.463 14.4419 163.431 14.6885C164.108 14.844 164.743 15.1472 165.289 15.5766C165.727 15.9391 166.062 16.4103 166.259 16.943C166.446 17.5305 166.538 18.1439 166.533 18.7602V18.9515C166.539 19.5523 166.437 20.1493 166.232 20.7141C166.045 21.2715 165.71 21.7675 165.262 22.1488C164.715 22.589 164.082 22.9101 163.404 23.0916C162.442 23.3485 161.448 23.4681 160.452 23.4468H150.888V10.3981H155.602V14.3469ZM136.91 18.2137V20.2906H142.089C142.342 20.2982 142.595 20.2706 142.84 20.2086C143.005 20.1558 143.158 20.0724 143.291 19.9626C143.391 19.8711 143.462 19.7524 143.496 19.621C143.517 19.4944 143.517 19.3651 143.496 19.2385V19.1702C143.516 19.048 143.516 18.9234 143.496 18.8012C143.464 18.6806 143.392 18.5745 143.291 18.5006C143.157 18.4003 143.004 18.3304 142.84 18.2957C142.595 18.2337 142.342 18.2061 142.089 18.2137H136.91ZM136.91 13.4998V15.3853H141.733C142.1 15.4266 142.468 15.3345 142.772 15.1257C142.861 15.039 142.932 14.9348 142.979 14.8196C143.026 14.7043 143.048 14.5806 143.045 14.4562C143.052 14.3288 143.028 14.2017 142.975 14.0853C142.923 13.9689 142.844 13.8666 142.745 13.7867C142.451 13.5775 142.091 13.485 141.733 13.5271L136.91 13.4998ZM132.183 10.4391H143.113C143.899 10.4232 144.684 10.5059 145.45 10.6851C145.989 10.8118 146.498 11.0389 146.953 11.3546C147.299 11.607 147.572 11.9464 147.745 12.3384C147.911 12.7028 147.995 13.0993 147.991 13.4998V13.6091C148 14.0044 147.906 14.3952 147.718 14.7432C147.563 15.0464 147.349 15.3158 147.09 15.5356C146.839 15.7351 146.564 15.9005 146.27 16.0275C146.011 16.1332 145.74 16.2067 145.464 16.2461C145.825 16.3034 146.182 16.3902 146.529 16.5057C146.912 16.6387 147.268 16.8376 147.581 17.0933C147.951 17.3622 148.247 17.7195 148.443 18.1324C148.639 18.5454 148.728 19.0008 148.702 19.4571V19.6347C148.703 20.1482 148.611 20.6576 148.429 21.1377C148.239 21.622 147.923 22.0467 147.513 22.3674C146.996 22.7429 146.411 23.0164 145.791 23.1736C144.898 23.3944 143.979 23.4955 143.059 23.4742H132.128L132.183 10.4391ZM124.859 16.8063C124.858 16.4693 124.812 16.1339 124.722 15.8089C124.626 15.4331 124.433 15.0891 124.162 14.8115C123.845 14.4727 123.452 14.215 123.014 14.06C121.71 13.6602 120.316 13.6602 119.011 14.06C118.57 14.2149 118.172 14.4725 117.85 14.8115C117.596 15.0978 117.414 15.4394 117.317 15.8089C117.223 16.1333 117.172 16.4687 117.166 16.8063V16.9976C117.172 17.3398 117.223 17.6796 117.317 18.0087C117.415 18.3916 117.608 18.7438 117.877 19.0335C118.205 19.3815 118.606 19.6522 119.052 19.826C119.69 20.0392 120.361 20.1364 121.033 20.1129C121.705 20.1341 122.376 20.037 123.014 19.826C123.453 19.6661 123.85 19.4092 124.176 19.0745C124.445 18.7848 124.637 18.4326 124.736 18.0497C124.826 17.7201 124.872 17.3802 124.873 17.0386L124.859 16.8063ZM121.416 10.2205C122.435 10.2051 123.453 10.3059 124.449 10.5211C125.223 10.6718 125.973 10.9293 126.676 11.2863C127.247 11.5749 127.764 11.9584 128.207 12.4204C128.597 12.8243 128.924 13.285 129.177 13.7867C129.405 14.2546 129.571 14.7508 129.669 15.2624C129.757 15.7125 129.803 16.17 129.805 16.6287V17.1479C129.801 17.6066 129.755 18.0639 129.669 18.5143C129.567 19.0203 129.401 19.5115 129.177 19.9763C128.623 21.0583 127.757 21.9487 126.69 22.5314C125.982 22.8914 125.228 23.1534 124.449 23.3102C123.453 23.5254 122.435 23.6263 121.416 23.6108H120.623C119.604 23.627 118.586 23.5261 117.59 23.3102C116.817 23.1491 116.068 22.8872 115.363 22.5314C114.288 21.9543 113.416 21.0629 112.862 19.9763C112.638 19.5115 112.472 19.0203 112.371 18.5143C112.284 18.0639 112.238 17.6066 112.234 17.1479V16.6287C112.237 16.17 112.282 15.7126 112.371 15.2624C112.566 14.1954 113.075 13.2108 113.833 12.434C114.277 11.9751 114.794 11.592 115.363 11.2999C116.066 10.9429 116.816 10.6854 117.59 10.5348C118.586 10.3189 119.604 10.218 120.623 10.2342L121.416 10.2205ZM99.5541 16.2598H103.899C104.14 16.2978 104.386 16.2845 104.622 16.221C104.857 16.1574 105.076 16.0449 105.265 15.8909C105.379 15.7757 105.469 15.6392 105.53 15.4891C105.591 15.339 105.622 15.1784 105.621 15.0164C105.625 14.8651 105.592 14.715 105.525 14.5792C105.479 14.4208 105.389 14.2787 105.265 14.1693C105.124 14.0374 104.949 13.9475 104.76 13.9097C104.503 13.8332 104.236 13.7963 103.967 13.8004H99.5814L99.5541 16.2598ZM99.5541 19.5937V23.4878H94.8402V10.4391H104.405C105.417 10.4195 106.428 10.5344 107.411 10.7807C108.095 10.9348 108.735 11.2432 109.283 11.6825C109.723 12.0392 110.055 12.5127 110.239 13.0489C110.436 13.6154 110.533 14.2118 110.526 14.8115V15.0438C110.532 15.6568 110.435 16.2665 110.239 16.8473C110.052 17.4083 109.711 17.9054 109.255 18.282C108.703 18.7245 108.066 19.0499 107.383 19.2385C106.409 19.4797 105.408 19.59 104.405 19.5664L99.5541 19.5937ZM87.5029 16.861C87.5018 16.5239 87.4558 16.1885 87.3662 15.8636C87.2701 15.4877 87.077 15.1438 86.806 14.8661C86.4839 14.5272 86.0859 14.2696 85.6446 14.1146C85.0049 13.8883 84.3278 13.7863 83.6498 13.814C82.9719 13.7896 82.2954 13.8915 81.6549 14.1146C81.2137 14.2696 80.8156 14.5272 80.4935 14.8661C80.2355 15.149 80.0523 15.4918 79.9606 15.8636C79.8669 16.188 79.8163 16.5234 79.8103 16.861V17.0523C79.8164 17.3944 79.8669 17.7343 79.9606 18.0634C80.0535 18.4485 80.2468 18.8021 80.5208 19.0882C80.8489 19.4362 81.2503 19.7069 81.6959 19.8806C82.9844 20.2629 84.3562 20.2629 85.6446 19.8806C86.0864 19.7072 86.4834 19.4363 86.806 19.0882C87.0751 18.7985 87.2676 18.4462 87.3662 18.0634C87.4559 17.7338 87.5019 17.3939 87.5029 17.0523V16.861ZM84.0597 10.2752C85.0789 10.2597 86.0966 10.3606 87.093 10.5758C87.8636 10.7236 88.6091 10.9813 89.3065 11.3409C89.8839 11.6251 90.4066 12.009 90.8505 12.475C91.2408 12.879 91.5679 13.3396 91.8206 13.8414C92.0494 14.3092 92.2148 14.8055 92.3125 15.317C92.4008 15.7672 92.4465 16.2247 92.4491 16.6834V17.2026C92.4451 17.6613 92.3994 18.1186 92.3125 18.569C92.2105 19.075 92.0452 19.5662 91.8206 20.0309C91.267 21.113 90.4005 22.0033 89.3338 22.586C88.6247 22.9439 87.8712 23.2058 87.093 23.3648C86.0966 23.5801 85.0789 23.6809 84.0597 23.6654H83.2672C82.2479 23.6824 81.23 23.5815 80.2339 23.3648C79.4606 23.2037 78.7119 22.9419 78.0067 22.586C77.4345 22.2764 76.9136 21.88 76.4628 21.411C76.0802 21.0037 75.758 20.5435 75.5063 20.0446C75.2816 19.5799 75.1164 19.0887 75.0144 18.5826C74.9275 18.1322 74.8818 17.6749 74.8778 17.2163V16.697C74.8806 16.2383 74.9263 15.7809 75.0144 15.3307C75.1142 14.8241 75.2795 14.3326 75.5063 13.8687C75.7637 13.3732 76.0853 12.9138 76.4628 12.5023C76.9154 12.0465 77.4363 11.6639 78.0067 11.3683C78.7101 11.0113 79.4596 10.7537 80.2339 10.6031C81.23 10.3865 82.2479 10.2856 83.2672 10.3025L84.0597 10.2752ZM66.789 20.1812V13.7457H61.7608C61.7643 14.5441 61.7278 15.3421 61.6515 16.1368C61.6076 16.7381 61.5255 17.336 61.4055 17.9268C61.3355 18.3908 61.2258 18.8479 61.0776 19.2931C60.9546 19.6484 60.8453 19.9763 60.7224 20.2496L66.789 20.1812ZM56.2134 20.1812C56.4072 19.7355 56.576 19.2794 56.719 18.8149C56.8895 18.2144 57.0174 17.6025 57.1015 16.984C57.2108 16.2461 57.2928 15.358 57.3475 14.3196C57.3475 13.2675 57.4295 11.9695 57.4295 10.4391H71.5439V20.1812H73.6207V25.6467H69.3167V23.4605H59.0144V25.6467H54.6831V20.1812H56.2134ZM53.4807 19.7303C53.4985 20.3748 53.3067 21.0077 52.9342 21.5339C52.5235 22.0652 51.9886 22.4875 51.3765 22.7636C50.5856 23.1203 49.7485 23.3641 48.8898 23.4878C47.7992 23.6435 46.6984 23.7166 45.5968 23.7064H45.1733C44.0572 23.7123 42.9425 23.63 41.8394 23.4605C40.9147 23.3168 40.0167 23.0359 39.175 22.627C38.469 22.2781 37.8627 21.7564 37.4124 21.1104C36.9739 20.4372 36.7544 19.645 36.7839 18.8422V18.7329H41.7574C41.7357 19.0456 41.8105 19.3575 41.9718 19.6263C42.1331 19.8951 42.373 20.1079 42.6592 20.2359C43.5742 20.5818 44.552 20.7308 45.5285 20.6731C47.5371 20.6731 48.5482 20.2496 48.5482 19.4024C48.5554 19.2114 48.5009 19.0231 48.3925 18.8655C48.2842 18.708 48.128 18.5896 47.947 18.528C47.3932 18.3405 46.8095 18.2571 46.2254 18.282H43.0418V15.358H46.0204C46.5386 15.3799 47.0566 15.3105 47.5507 15.1531C47.7142 15.1094 47.8577 15.011 47.9572 14.8742C48.0567 14.7373 48.1061 14.5705 48.0973 14.4016C48.0973 14.2348 48.0447 14.0722 47.947 13.937C47.8416 13.7675 47.6831 13.6378 47.4961 13.5681C47.2205 13.4562 46.9309 13.3826 46.6353 13.3495C46.1827 13.2863 45.7258 13.2589 45.2689 13.2675C44.8121 13.2631 44.3556 13.2905 43.9026 13.3495C43.5324 13.4008 43.1699 13.4972 42.8231 13.6364C42.5459 13.7461 42.3014 13.9248 42.1126 14.1556C41.9414 14.4005 41.8464 14.6904 41.8394 14.9891H36.9615V14.8388C36.9387 14.0985 37.1542 13.3705 37.5764 12.762C38.0321 12.1693 38.6286 11.6997 39.3116 11.3956C40.1323 11.0026 41.0074 10.7354 41.9077 10.6031C42.9728 10.4218 44.0519 10.3349 45.1323 10.3435H45.6925C46.7357 10.3293 47.7782 10.407 48.8078 10.5758C49.5996 10.6793 50.3726 10.8956 51.1032 11.218C51.6363 11.4606 52.1045 11.8258 52.4696 12.2837C52.7963 12.7003 52.97 13.2164 52.9615 13.7457V13.8687C52.9701 14.2389 52.9003 14.6068 52.7565 14.9481C52.6373 15.2432 52.4555 15.5089 52.2237 15.7269C51.9942 15.9415 51.7311 16.1169 51.4448 16.2461C51.1442 16.387 50.8336 16.5057 50.5157 16.6014C50.8766 16.675 51.2291 16.7848 51.5678 16.9293C51.9175 17.0757 52.2407 17.2788 52.5243 17.5305C52.8109 17.7762 53.0435 18.0786 53.2074 18.4187C53.4045 18.7833 53.5034 19.193 53.4944 19.6074L53.4807 19.7303Z" fill="white"/>
<path fill-rule="evenodd" clip-rule="evenodd" d="M13.2138 23.6929C12.2217 23.7087 11.2311 23.6078 10.2625 23.3923C9.50382 23.2211 8.77265 22.9451 8.08999 22.5725C7.55833 22.2567 7.07894 21.8603 6.66898 21.3974C6.29894 20.9861 5.98639 20.5264 5.73986 20.0311C5.51319 19.5719 5.34782 19.085 5.24797 18.5827C5.16888 18.1315 5.12774 17.6745 5.125 17.2164V16.6972C5.12703 16.2391 5.16816 15.7819 5.24797 15.3308C5.34452 14.8312 5.50048 14.345 5.71253 13.8825C5.95992 13.3876 6.2724 12.9281 6.64165 12.5161C7.07717 12.0489 7.5903 11.6606 8.1583 11.3684C8.83906 10.9947 9.57105 10.7231 10.3308 10.5623C11.2992 10.3453 12.2899 10.2444 13.2821 10.2617H14.0746C15.0685 10.2498 16.0613 10.3321 17.0396 10.5076C17.789 10.6388 18.5189 10.8637 19.2121 11.1771C19.7502 11.3969 20.2417 11.7168 20.6604 12.1199C21.0273 12.4437 21.3368 12.8271 21.5759 13.254C21.7875 13.6339 21.9396 14.044 22.0268 14.47C22.1054 14.8476 22.1465 15.2321 22.1498 15.6178V15.7681H17.2036C17.1724 15.6197 17.1313 15.4736 17.0806 15.3308C16.9776 15.0761 16.8134 14.8509 16.6024 14.675C16.294 14.3978 15.9309 14.1883 15.5366 14.0601C14.919 13.8627 14.2716 13.7749 13.6237 13.8005C12.9905 13.7759 12.3587 13.8781 11.7655 14.1011C11.3454 14.2665 10.9674 14.5232 10.6587 14.8526C10.41 15.1294 10.2319 15.4622 10.1395 15.8227C10.0448 16.1469 9.99426 16.4824 9.98922 16.8202V17.0251C9.9953 17.3672 10.0458 17.7071 10.1395 18.0362C10.2448 18.4108 10.4262 18.7597 10.6724 19.061C10.9837 19.3907 11.3607 19.6514 11.7791 19.8261C12.3727 20.0478 13.0042 20.1499 13.6374 20.1267C14.2853 20.1524 14.9326 20.0645 15.5503 19.8671C15.9357 19.7347 16.2926 19.5307 16.6024 19.2659C16.8112 19.0826 16.9749 18.8534 17.0806 18.5964C17.1535 18.3869 17.1944 18.2503 17.2036 18.1865H22.0814V18.3231C22.0782 18.6953 22.037 19.0661 21.9585 19.4299C21.8667 19.8502 21.7148 20.2552 21.5076 20.6323C21.2763 21.0649 20.9763 21.4571 20.6194 21.7937C20.1764 22.1896 19.6796 22.5208 19.1438 22.7775C18.4514 23.0837 17.7274 23.3128 16.9849 23.4606C16.0036 23.6492 15.0055 23.7362 14.0063 23.7202L13.2138 23.6929ZM23.2565 20.8509C23.2565 20.3293 23.4112 19.8195 23.7009 19.3858C23.9907 18.9522 24.4025 18.6142 24.8844 18.4146C25.3663 18.215 25.8965 18.1628 26.408 18.2645C26.9196 18.3663 27.3894 18.6174 27.7582 18.9862C28.127 19.355 28.3782 19.8249 28.48 20.3364C28.5817 20.848 28.5295 21.3782 28.3299 21.86C28.1303 22.3419 27.7923 22.7538 27.3586 23.0435C26.925 23.3333 26.4151 23.4879 25.8936 23.4879C25.5468 23.4898 25.203 23.4228 24.8823 23.2909C24.5615 23.159 24.2701 22.9648 24.0248 22.7196C23.7796 22.4744 23.5854 22.183 23.4535 21.8622C23.3217 21.5414 23.2547 21.1977 23.2565 20.8509Z" fill="#4EE567"/>
</svg>
