<svg width="170" height="32" viewBox="0 0 170 32" fill="none" xmlns="http://www.w3.org/2000/svg">
<path fill-rule="evenodd" clip-rule="evenodd" d="M165.062 13.7591H159.829C159.41 13.7147 158.99 13.832 158.654 14.0871C158.546 14.1823 158.461 14.3003 158.404 14.4327C158.347 14.565 158.321 14.7083 158.326 14.8522C158.322 15.0041 158.348 15.1552 158.405 15.2962C158.461 15.4373 158.546 15.5652 158.654 15.672C159.002 15.8999 159.415 16.0056 159.829 15.9726H165.062V13.7591ZM162.33 19.3749L158.299 23.4739H152.697L157.274 18.8283C156.195 18.715 155.18 18.2603 154.377 17.5303C154.041 17.1841 153.779 16.7728 153.608 16.3217C153.436 15.8705 153.359 15.3891 153.38 14.9069V14.7293C153.374 14.1526 153.485 13.5807 153.708 13.0486C153.944 12.5192 154.299 12.0515 154.746 11.6823C155.257 11.2706 155.841 10.9599 156.468 10.7668C157.244 10.5357 158.05 10.4251 158.859 10.4389H169.79V23.4739H165.062V19.3749H162.33ZM145.933 15.6037L139.43 23.4739H134.729V10.3842H139.457V18.3091L145.933 10.3842H150.647V23.4193H145.933V15.6037ZM122.487 14.0324H117.24V10.3842H132.393V13.9778H127.173V23.4193H122.459L122.487 14.0324ZM114.986 23.4739H110.272V10.3842H115.013L114.986 23.4739ZM102.538 20.181C102.946 20.218 103.352 20.0955 103.672 19.8394C103.798 19.7293 103.898 19.5924 103.964 19.4388C104.03 19.2851 104.061 19.1185 104.055 18.9513V18.8283C104.061 18.6651 104.03 18.5026 103.964 18.3533C103.897 18.2041 103.798 18.0721 103.672 17.9675C103.342 17.7339 102.941 17.6227 102.538 17.6532H98.111V20.181H102.538ZM98.111 14.3467H102.975C103.974 14.323 104.971 14.4333 105.94 14.6746C106.619 14.8346 107.253 15.1425 107.798 15.5764C108.238 15.9375 108.572 16.4091 108.769 16.9427C108.955 17.5349 109.047 18.1528 109.042 18.7737V18.9649C109.048 19.5613 108.946 20.1537 108.741 20.7139C108.554 21.2713 108.219 21.7673 107.771 22.1486C107.224 22.5888 106.591 22.9099 105.913 23.0913C104.951 23.3474 103.957 23.467 102.962 23.4466H93.3971V10.3842H98.111V14.3467ZM84.7618 20.3313C85.1548 20.3613 85.5471 20.2656 85.8822 20.058C86.0067 19.9649 86.1066 19.8428 86.1732 19.7023C86.2399 19.5618 86.2713 19.4072 86.2648 19.2519V19.1562C86.2695 19.0089 86.2369 18.8627 86.17 18.7313C86.1031 18.5999 86.0041 18.4876 85.8822 18.4047C85.5461 18.1997 85.1545 18.1042 84.7618 18.1315H80.3484V20.3313H84.7618ZM75.6072 10.3842H90.2545V13.5132H80.3484V14.8796H85.8958C86.7289 14.8573 87.5599 14.9727 88.3553 15.2211C88.9616 15.3833 89.5225 15.6824 89.9949 16.0956C90.4195 16.4585 90.7362 16.9312 90.9104 17.462C91.1146 17.9747 91.2168 18.5224 91.211 19.0743V19.2655C91.2196 19.8221 91.1175 20.3748 90.9104 20.8915C90.7284 21.4184 90.413 21.8892 89.9949 22.2579C89.5216 22.6758 88.9617 22.9838 88.3553 23.1597C87.5549 23.3825 86.7265 23.4884 85.8958 23.4739H75.6072V10.3842ZM68.2835 16.7378C68.2825 16.4007 68.2365 16.0653 68.1469 15.7404C68.0421 15.3681 67.8501 15.0261 67.5867 14.7429C67.2608 14.4085 66.8639 14.1517 66.4253 13.9914C65.125 13.5944 63.7358 13.5944 62.4356 13.9914C61.997 14.1517 61.6001 14.4085 61.2742 14.7429C61.0148 15.0269 60.8274 15.369 60.7276 15.7404C60.6446 16.0666 60.5988 16.4012 60.591 16.7378V16.9291C60.5987 17.2747 60.6445 17.6183 60.7276 17.9538C60.8351 18.3291 61.0267 18.6749 61.2878 18.9649C61.6173 19.3113 62.0183 19.5817 62.4629 19.7574C63.7533 20.1581 65.1349 20.1581 66.4253 19.7574C66.8696 19.5888 67.2677 19.3172 67.5867 18.9649C67.8478 18.6749 68.0394 18.3291 68.1469 17.9538C68.2367 17.6196 68.2826 17.2752 68.2835 16.9291V16.7378ZM64.8267 10.152C65.846 10.1351 66.8638 10.2359 67.86 10.4526C68.6337 10.6051 69.383 10.8625 70.0871 11.2177C70.6656 11.506 71.1884 11.8946 71.6311 12.3655C72.0245 12.7669 72.3519 13.2281 72.6012 13.7318C72.828 14.1957 72.9934 14.6872 73.0931 15.1938C73.1745 15.645 73.2201 16.1018 73.2297 16.5602V17.216C73.2201 17.6743 73.1745 18.1312 73.0931 18.5824C72.9934 19.089 72.828 19.5805 72.6012 20.0444C72.3477 20.5456 72.0207 21.0061 71.6311 21.4107C71.203 21.9243 70.6843 22.355 70.1008 22.6814C69.3908 23.0403 68.6377 23.3066 67.86 23.4739C66.8628 23.6839 65.8457 23.7846 64.8267 23.7745H64.0478C63.0288 23.7846 62.0117 23.6839 61.0145 23.4739C60.2418 23.3045 59.4935 23.0383 58.7874 22.6814C58.2121 22.3765 57.6906 21.9796 57.2434 21.5064C56.8579 21.1015 56.5355 20.6408 56.287 20.14C56.0317 19.6507 55.852 19.1255 55.7541 18.5824C55.6622 18.1325 55.6119 17.6751 55.6038 17.216V16.6831C55.612 16.224 55.6623 15.7667 55.7541 15.3168C55.8477 14.8129 56.0134 14.3251 56.246 13.8684C56.4999 13.3709 56.8218 12.911 57.2024 12.5021C57.6509 12.0377 58.1724 11.6499 58.7464 11.3544C59.4513 11.0011 60.2004 10.7438 60.9736 10.5892C61.9697 10.3726 62.9876 10.2717 64.0069 10.2886L64.8267 10.152ZM45.0145 23.6242C44.0344 23.6519 43.0541 23.5741 42.0905 23.3919C41.333 23.2104 40.6026 22.9302 39.918 22.5585C39.3591 22.2532 38.8557 21.8559 38.4287 21.3834C38.0601 20.9709 37.7477 20.5115 37.4996 20.017C37.261 19.5637 37.0819 19.0815 36.9667 18.5824C36.8888 18.131 36.8477 17.674 36.8438 17.216V16.6831C36.8458 16.225 36.8869 15.7679 36.9667 15.3168C37.1564 14.2754 37.6292 13.3063 38.3331 12.5158C38.7592 12.0404 39.2686 11.6468 39.8361 11.3544C40.5437 10.9698 41.3029 10.6891 42.0905 10.5209C43.0646 10.3107 44.0591 10.2098 45.0555 10.2203H45.8344C46.8283 10.2078 47.8211 10.2902 48.7993 10.4662C49.5472 10.6037 50.2763 10.8284 50.9718 11.1357C51.5064 11.3699 52 11.6882 52.4338 12.0785C52.7902 12.4139 53.0941 12.8007 53.3356 13.2263C53.5513 13.6008 53.708 14.0064 53.8002 14.4287C53.8795 14.8108 53.9207 15.1998 53.9232 15.5901V15.7267H48.9906C48.9595 15.5784 48.9184 15.4323 48.8677 15.2895C48.7653 15.0383 48.6007 14.8173 48.3894 14.6473C48.0855 14.364 47.7211 14.1537 47.3237 14.0324C46.7073 13.8284 46.0596 13.7359 45.4108 13.7591C44.7781 13.7428 44.1478 13.8447 43.5525 14.0597C43.1352 14.2301 42.7581 14.4861 42.4458 14.8112C42.205 15.0935 42.028 15.4244 41.9266 15.7813C41.837 16.1063 41.791 16.4417 41.7899 16.7788V16.9837C41.7909 17.3298 41.8368 17.6743 41.9266 18.0085C42.0401 18.3784 42.2258 18.722 42.4731 19.0196C42.7794 19.3524 43.1517 19.6176 43.5662 19.7984C44.1628 20.0073 44.7927 20.1045 45.4244 20.0854C46.0723 20.111 46.7197 20.0231 47.3373 19.8258C47.7217 19.6975 48.0786 19.4982 48.3894 19.2382C48.618 19.0664 48.801 18.8413 48.9223 18.5824C48.9223 18.3638 49.0316 18.2271 49.0453 18.1588H53.9368V18.2954C53.9336 18.6676 53.8924 19.0384 53.8139 19.4022C53.7172 19.8274 53.5608 20.2369 53.3493 20.6182C53.1176 21.0465 52.8176 21.4342 52.4612 21.766C52.0275 22.1738 51.5288 22.5063 50.9855 22.7497C50.2955 23.0622 49.5708 23.2915 48.8267 23.4329C47.8453 23.6215 46.8472 23.7085 45.848 23.6925L45.0145 23.6242Z" fill="white"/>
<path d="M16.2109 32C25.0475 32 32.2109 24.8366 32.2109 16C32.2109 7.16344 25.0475 0 16.2109 0C7.37438 0 0.210938 7.16344 0.210938 16C0.210938 24.8366 7.37438 32 16.2109 32Z" fill="white"/>
<path fill-rule="evenodd" clip-rule="evenodd" d="M13.1103 23.6787C12.1189 23.6917 11.1292 23.5955 10.1589 23.3918C9.38259 23.2149 8.63351 22.9346 7.93178 22.5583C7.4166 22.2419 6.95532 21.8453 6.56542 21.3832C6.19246 20.9742 5.87962 20.5141 5.6363 20.0169C5.38827 19.5649 5.19997 19.0827 5.0761 18.5822C4.99818 18.1308 4.95705 17.6739 4.95312 17.2159V16.683C4.95515 16.2249 4.99629 15.7677 5.0761 15.3166C5.17068 14.8209 5.32674 14.339 5.54066 13.8819C5.78477 13.3852 6.09754 12.9252 6.46978 12.5156C6.88242 12.0354 7.37754 11.6329 7.93178 11.3269C8.61517 10.959 9.34631 10.6876 10.1043 10.5207C11.0737 10.3105 12.0637 10.2097 13.0556 10.2201H13.8481C14.842 10.2082 15.8347 10.2906 16.8131 10.4661C17.5609 10.6036 18.2901 10.8283 18.9856 11.1356C19.5184 11.3653 20.0082 11.6842 20.4339 12.0784C20.7981 12.4098 21.1072 12.7973 21.3494 13.2261C21.5619 13.6007 21.7141 14.0065 21.8003 14.4285C21.8796 14.8106 21.9207 15.1996 21.9232 15.5899V15.7265H17.1C17.0688 15.5782 17.0278 15.4321 16.977 15.2893C16.8699 15.0409 16.7061 14.821 16.4988 14.6471C16.1949 14.3638 15.8304 14.1535 15.4331 14.0322C14.8167 13.8283 14.169 13.7357 13.5202 13.759C12.8873 13.7413 12.2569 13.8433 11.6619 14.0596C11.2445 14.23 10.8675 14.486 10.5552 14.8111C10.3095 15.09 10.1317 15.422 10.036 15.7812C9.94222 16.1056 9.89168 16.441 9.88566 16.7786V16.9836C9.89223 17.3301 9.94274 17.6745 10.036 18.0083C10.1447 18.3774 10.3258 18.7211 10.5688 19.0194C10.8831 19.3492 11.2591 19.6138 11.6756 19.7983C12.2719 20.008 12.902 20.1053 13.5338 20.0852C14.1817 20.1108 14.8291 20.023 15.4467 19.8256C15.8311 19.6973 16.188 19.498 16.4988 19.2381C16.7046 19.0519 16.8677 18.8235 16.977 18.5685C17.0454 18.3499 17.0863 18.2133 17.1 18.145H21.9779V18.2816C21.9747 18.6537 21.9335 19.0246 21.8549 19.3884C21.7633 19.8131 21.6115 20.2226 21.404 20.6044C21.1723 21.0327 20.8723 21.4204 20.5159 21.7521C20.0799 22.1571 19.5817 22.4893 19.0402 22.7359C18.3502 23.0483 17.6255 23.2777 16.8814 23.4191C15.9001 23.6077 14.9019 23.6947 13.9027 23.6787H13.1103ZM23.153 20.8504C23.1502 20.3282 23.3026 19.817 23.5907 19.3816C23.8788 18.9461 24.2897 18.606 24.7714 18.4043C25.253 18.2026 25.7836 18.1484 26.2961 18.2486C26.8085 18.3488 27.2796 18.5989 27.6498 18.9672C28.02 19.3354 28.2725 19.8053 28.3754 20.3172C28.4782 20.8291 28.4268 21.36 28.2276 21.8427C28.0284 22.3253 27.6905 22.738 27.2565 23.0284C26.8225 23.3187 26.3122 23.4737 25.79 23.4738C25.4444 23.4756 25.1018 23.409 24.7819 23.278C24.462 23.147 24.1712 22.954 23.9262 22.7102C23.6811 22.4664 23.4866 22.1766 23.3539 21.8574C23.2213 21.5383 23.153 21.196 23.153 20.8504Z" fill="#29DFE3"/>
</svg>
