<svg width="134" height="32" viewBox="0 0 134 32" fill="none" xmlns="http://www.w3.org/2000/svg">
<path fill-rule="evenodd" clip-rule="evenodd" d="M126.971 21.3562H120.221L119.279 23.4741H114.565L120.59 10.439H126.78L133.024 23.4604H128.01L126.971 21.3562ZM123.596 13.8959L121.615 18.3502H125.605L123.596 13.8959ZM108.43 13.773H103.921C103.936 15.2598 103.877 16.7464 103.743 18.2273C103.691 19.1595 103.507 20.0796 103.197 20.96C103.043 21.3481 102.841 21.7154 102.595 22.0531C102.338 22.3771 102.023 22.6504 101.666 22.8592C101.241 23.0973 100.779 23.2634 100.3 23.3511C99.7217 23.4809 99.1299 23.5405 98.5374 23.5287H97.1164V19.7712H97.4033C97.7505 19.7912 98.095 19.7003 98.3871 19.5116C98.6423 19.3228 98.8407 19.0676 98.9609 18.7738C99.0659 18.5232 99.1438 18.2621 99.1932 17.995C99.2605 17.5423 99.3016 17.0861 99.3162 16.6286C99.3162 16.0138 99.3162 15.2623 99.3162 14.2375C99.3162 13.2127 99.3162 11.9967 99.3162 10.439H113.075V23.4604H108.43V13.773ZM90.8995 16.8336C90.8934 16.4959 90.8429 16.1606 90.7492 15.8361C90.6501 15.4615 90.4574 15.1182 90.189 14.8387C89.8685 14.5042 89.4759 14.2472 89.0412 14.0872C87.7367 13.6874 86.3423 13.6874 85.0378 14.0872C84.6013 14.2436 84.208 14.5011 83.8901 14.8387C83.6308 15.1227 83.4433 15.4647 83.3435 15.8361C83.2498 16.1606 83.1992 16.4959 83.1932 16.8336V17.0385C83.2009 17.3805 83.2514 17.7202 83.3435 18.0496C83.4453 18.4272 83.6376 18.7743 83.9037 19.0607C84.228 19.4132 84.6305 19.6846 85.0788 19.8532C85.7141 20.0785 86.3865 20.1805 87.06 20.1538C87.7333 20.1766 88.405 20.0747 89.0412 19.8532C89.4816 19.6846 89.8752 19.4128 90.189 19.0607C90.4551 18.7743 90.6474 18.4272 90.7492 18.0496C90.8412 17.7202 90.8917 17.3805 90.8995 17.0385V16.8336ZM87.4426 10.2478C88.4619 10.2316 89.4796 10.3324 90.4759 10.5484C91.2484 10.7053 91.9972 10.9625 92.703 11.3135C93.2767 11.6032 93.7947 11.9917 94.2334 12.4612C94.6268 12.8627 94.9542 13.3238 95.2035 13.8276C95.4323 14.2954 95.5977 14.7917 95.6954 15.3033C95.7844 15.7533 95.8302 16.2108 95.832 16.6696V17.2025C95.8274 17.6611 95.7817 18.1184 95.6954 18.5688C95.5933 19.0705 95.428 19.5571 95.2035 20.0172C94.6499 21.0992 93.7834 21.9896 92.7167 22.5723C92.0067 22.9311 91.2536 23.1975 90.4759 23.3647C89.4786 23.5739 88.4616 23.6747 87.4426 23.6653H86.6501C85.6311 23.6747 84.6141 23.5739 83.6168 23.3647C82.8445 23.1937 82.0964 22.9275 81.3896 22.5723C80.3153 21.9952 79.4429 21.1037 78.8892 20.0172C78.6647 19.5571 78.4994 19.0705 78.3973 18.5688C78.311 18.1184 78.2653 17.6611 78.2607 17.2025V16.6286C78.2641 16.1699 78.3099 15.7126 78.3973 15.2623C78.4972 14.76 78.6625 14.2731 78.8892 13.8139C79.1433 13.3131 79.4702 12.8526 79.8593 12.4476C80.3 11.9803 80.8176 11.5921 81.3896 11.2999C82.0955 10.9488 82.8442 10.6916 83.6168 10.5347C84.6131 10.3188 85.6308 10.2179 86.6501 10.2341L87.4426 10.2478ZM67.2205 17.6944V23.4604H62.5066V10.4254H67.2205V15.4672L72.5903 10.4254H78.1377L71.7978 16.3144L78.6296 23.4604H72.604L67.2205 17.6944ZM38.1719 10.48H42.9131V20.2221H46.5203V10.48H51.2342V20.2221H54.8551V10.48H59.569V23.4604H38.1719V10.48Z" fill="white"/>
<path d="M16.9727 32C25.8092 32 32.9727 24.8365 32.9727 16C32.9727 7.16343 25.8092 0 16.9727 0C8.1361 0 0.972656 7.16343 0.972656 16C0.972656 24.8365 8.1361 32 16.9727 32Z" fill="white"/>
<path fill-rule="evenodd" clip-rule="evenodd" d="M13.8681 23.6787C12.8767 23.6917 11.887 23.5955 10.9167 23.3918C10.1592 23.2103 9.42879 22.93 8.74424 22.5583C8.1831 22.2564 7.67907 21.8587 7.25492 21.3832C6.88196 20.9741 6.56912 20.5141 6.3258 20.0169C6.10138 19.5615 5.93608 19.0794 5.83391 18.5822C5.75599 18.1308 5.71486 17.6739 5.71094 17.2158V16.6283C5.71368 16.1702 5.75482 15.7132 5.83391 15.262C5.92849 14.7663 6.08455 14.2843 6.29847 13.8273C6.54586 13.3324 6.85834 12.8729 7.22759 12.4609C7.65885 11.9854 8.1727 11.5919 8.74424 11.2995C9.42764 10.9316 10.1588 10.6603 10.9167 10.4934C11.8862 10.2832 12.8762 10.1823 13.8681 10.1928H14.6606C15.6544 10.1809 16.6472 10.2632 17.6255 10.4387C18.3734 10.5762 19.1025 10.8009 19.798 11.1083C20.3308 11.338 20.8206 11.6568 21.2464 12.051C21.6106 12.3825 21.9196 12.77 22.1618 13.1988C22.3744 13.5734 22.5265 13.9792 22.6127 14.4011C22.692 14.7833 22.7332 15.1723 22.7357 15.5626V15.6992H17.8578C17.8249 15.5513 17.7839 15.4053 17.7348 15.262C17.6277 15.0135 17.4639 14.7936 17.2566 14.6198C16.9483 14.3426 16.5852 14.1331 16.1909 14.0049C15.5733 13.8075 14.9259 13.7197 14.278 13.7453C13.6461 13.7239 13.0158 13.8212 12.4197 14.0322C12.0023 14.2026 11.6253 14.4586 11.313 14.7837C11.0673 15.0626 10.8895 15.3947 10.7938 15.7538C10.7 16.0783 10.6495 16.4136 10.6435 16.7513V16.9699C10.6512 17.3119 10.7017 17.6516 10.7938 17.981C10.9025 18.3501 11.0836 18.6938 11.3267 18.9921C11.6371 19.3261 12.0141 19.5915 12.4334 19.7709C13.0287 19.986 13.6589 20.0879 14.2916 20.0715C14.9404 20.0948 15.5882 20.0022 16.2045 19.7983C16.5889 19.67 16.9458 19.4707 17.2566 19.2107C17.4624 19.0246 17.6255 18.7962 17.7348 18.5412C17.7832 18.4022 17.8242 18.2609 17.8578 18.1176H22.7357V18.2543C22.7325 18.6264 22.6913 18.9973 22.6127 19.361C22.5211 19.7858 22.3693 20.1953 22.1618 20.5771C21.9301 21.0054 21.6301 21.393 21.2737 21.7248C20.8378 22.1297 20.3395 22.4619 19.798 22.7086C19.108 23.021 18.3833 23.2503 17.6392 23.3918C16.6579 23.5803 15.6597 23.6673 14.6606 23.6514L13.8681 23.6787ZM23.9108 20.8503C23.9053 20.3276 24.0554 19.8151 24.3419 19.3779C24.6283 18.9407 25.0382 18.5984 25.5196 18.3946C26.001 18.1908 26.532 18.1347 27.0453 18.2333C27.5587 18.332 28.0311 18.581 28.4026 18.9486C28.7742 19.3163 29.0281 19.7862 29.132 20.2984C29.236 20.8107 29.1854 21.3423 28.9867 21.8258C28.7879 22.3092 28.4499 22.7227 28.0157 23.0137C27.5815 23.3047 27.0705 23.4601 26.5478 23.4601C26.2033 23.4619 25.8618 23.3958 25.5429 23.2656C25.2239 23.1354 24.9337 22.9437 24.6888 22.7014C24.4439 22.459 24.2492 22.1708 24.1157 21.8532C23.9822 21.5356 23.9126 21.1948 23.9108 20.8503Z" fill="#7756FB"/>
</svg>
