<svg width="252" height="56" viewBox="0 0 252 56" fill="none" xmlns="http://www.w3.org/2000/svg">
<path fill-rule="evenodd" clip-rule="evenodd" d="M234.065 24.5432H224.935V18.3007H251.37V24.5839H242.219V41.0748H234.086L234.065 24.5432ZM221.275 18.3007V23.7908H206.736V26.6986H220.808V32.3718H206.736V35.5033H221.479V41.0748H198.501V18.3007H221.275ZM176.54 30.9484V41.1155H168.407V18.3007H176.54V27.146L185.894 18.3007H195.593L184.511 28.61L196.366 41.1155H185.914L176.54 30.9484ZM145.206 28.4677H152.79C153.194 28.5166 153.603 28.4842 153.995 28.3724C154.386 28.2607 154.75 28.0718 155.068 27.817C155.265 27.6157 155.42 27.3772 155.525 27.1155C155.63 26.8537 155.682 26.5738 155.678 26.2919C155.681 26.0276 155.632 25.7651 155.535 25.5192C155.446 25.2503 155.284 25.0111 155.068 24.8279C154.82 24.5893 154.51 24.427 154.173 24.3602C153.724 24.2273 153.258 24.1655 152.79 24.1772H145.206V28.4677ZM145.206 34.2832V41.0748H136.909V18.3007H153.563C155.33 18.2615 157.095 18.4598 158.809 18.8903C160.006 19.1651 161.125 19.7073 162.083 20.4764C162.868 21.1112 163.453 21.9582 163.771 22.9165C164.105 23.9121 164.27 24.9569 164.259 26.0073V26.4343C164.27 27.5112 164.105 28.5827 163.771 29.6064C163.435 30.5776 162.845 31.4413 162.062 32.1075C161.09 32.8828 159.969 33.4503 158.768 33.7749C157.067 34.1978 155.316 34.3893 153.563 34.3442L145.206 34.2832ZM124.038 37.374H112.203L110.556 41.0748H102.423L112.854 18.3007H123.672L134.469 41.0748H125.705L124.038 37.374ZM118.121 24.2382L114.664 32.0261H121.638L118.121 24.2382ZM65.069 18.3007H76.4764L82.5766 31.3348L88.9615 18.3007H99.8606V41.0748H91.7269V26.841L84.9557 41.0748H79.7908L73.0806 26.841V41.0748H65.069V18.3007Z" fill="#F75F41"/>
<path d="M28 56C43.464 56 56 43.464 56 28C56 12.536 43.464 0 28 0C12.536 0 0 12.536 0 28C0 43.464 12.536 56 28 56Z" fill="#F75F41"/>
<path fill-rule="evenodd" clip-rule="evenodd" d="M22.5911 41.4408C20.8479 41.4695 19.1075 41.292 17.406 40.9121C16.083 40.6015 14.8052 40.1231 13.6035 39.4887C12.6366 38.9487 11.7587 38.2628 11.0007 37.4553C10.36 36.7195 9.81352 35.9067 9.374 35.0356C8.98565 34.241 8.69872 33.4007 8.51997 32.5345C8.38576 31.7349 8.31775 30.9255 8.31663 30.1147V29.1997C8.31651 28.3956 8.38454 27.5929 8.51997 26.8003C8.69286 25.9287 8.97288 25.0818 9.35367 24.2789C9.78434 23.415 10.3317 22.6145 10.9804 21.8998C11.73 21.0748 12.6177 20.3867 13.6035 19.8664C14.8023 19.2303 16.0813 18.7583 17.406 18.4633C19.1087 18.0912 20.8483 17.9138 22.5911 17.9346H23.9739C25.7099 17.8944 27.4459 18.017 29.159 18.3007C30.4672 18.5479 31.743 18.9436 32.9615 19.48C33.8944 19.884 34.7534 20.4407 35.5033 21.1271C36.1342 21.7185 36.6693 22.4045 37.0893 23.1605C37.4546 23.7945 37.722 24.48 37.8823 25.1939C38.0237 25.8627 38.0987 26.5438 38.106 27.2273V27.4713H29.5454C29.4988 27.2086 29.4308 26.9502 29.342 26.6986C29.144 26.2728 28.8436 25.9025 28.4677 25.6209C27.9219 25.141 27.2859 24.7746 26.5969 24.5432C25.5193 24.2038 24.3912 24.0524 23.2622 24.0959C22.1551 24.0542 21.0503 24.2268 20.0087 24.6042C19.2788 24.9036 18.6204 25.354 18.077 25.9259C17.6416 26.4074 17.3279 26.9861 17.1619 27.6137C17.0053 28.1836 16.9233 28.7714 16.9179 29.3624V29.7284C16.9245 30.3327 17.0064 30.9338 17.1619 31.5178C17.3503 32.1649 17.6686 32.7668 18.0973 33.2869C18.6431 33.8611 19.3004 34.3178 20.029 34.6289C21.0674 35.0204 22.1736 35.2002 23.2825 35.1576C24.4134 35.2075 25.5438 35.0489 26.6173 34.6899C27.2971 34.4712 27.9263 34.1186 28.4677 33.6529C28.8334 33.3379 29.1191 32.9407 29.3014 32.4938C29.3859 32.2548 29.4539 32.0102 29.5047 31.7618H38.0654V32.0058C38.0625 32.6896 37.9876 33.3712 37.8417 34.0392C37.6751 34.7512 37.4081 35.4359 37.0487 36.0726C36.6376 36.829 36.1092 37.5153 35.4829 38.106C34.7266 38.8151 33.8616 39.3986 32.9208 39.8344C31.7083 40.3681 30.4396 40.7637 29.1387 41.0138C27.4253 41.3556 25.6801 41.5124 23.9332 41.4815L22.5911 41.4408ZM40.1598 36.4793C40.1598 35.5695 40.4298 34.6802 40.9357 33.9241C41.4415 33.1679 42.1605 32.5789 43.0014 32.2317C43.8423 31.8845 44.7673 31.7947 45.6593 31.9736C46.5513 32.1526 47.3701 32.5923 48.012 33.2371C48.6538 33.8818 49.0899 34.7025 49.2649 35.5953C49.4399 36.4881 49.346 37.4127 48.9951 38.2521C48.6441 39.0914 48.052 39.8077 47.2936 40.3102C46.5352 40.8127 45.6447 41.0788 44.7349 41.0748C43.5197 41.0694 42.356 40.5829 41.4986 39.7216C40.6411 38.8604 40.1598 37.6946 40.1598 36.4793Z" fill="white"/>
</svg>
